<svg xmlns="http://www.w3.org/2000/svg" viewBox="0 0 2282.9 689.4"><defs><style>.cls-1{fill:#fff;}.cls-2{fill:#0b18bf;}</style></defs><g id="Calque_2" data-name="Calque 2"><g id="Calque_1-2" data-name="Calque 1"><path class="cls-1" d="M947.4,280.3V282H854.2v-1.7l15.8-6.7L983.3,34.2H985l120,239.4,15.8,6.7V282H1004.1v-1.7l26.5-6.7L990,191.5H914.2c-23.8,58.3-9.1,80.8,24.5,87.2Zm40.5-92.8-37.2-74.8-30.2,64c-1.7,3.7-3.4,7.4-4.7,10.7h72.1Z"/><path class="cls-1" d="M1309.8,273.6l16.8,6.7V282h-97.2v-1.7l16.8-6.7V171.4c0-19.1-9.1-27.5-22.5-27.5-9.1,0-14.8,3.4-21.5,7V273.6l16.8,6.7V282h-98.9v-1.7l18.4-6.7V142.2l-18.4-5.7v-1.7l81.8-28.2h.3v40.6c23.1-20.1,45.3-40.6,66-40.6,22.8,0,41.6,17.8,41.6,53.6V273.6Z"/><path class="cls-1" d="M1331.9,133.2c36.9-10.4,71.1-42.6,79.5-70.4h2v48.9h42.2v23.5h-42.2V238.8c0,12.7,8.4,19.8,23.5,19.8,8,0,14.8-2,23.1-7.4l1.3,2c-35.5,26.8-47.9,33.9-66.4,33.9-27.8,0-45.3-16.4-45.3-44.9V135.3h-17.7Z"/><path class="cls-1" d="M1657.1,273.6l16.8,6.7V282h-97.2v-1.7l16.8-6.7V171.4c0-19.1-9.1-27.5-22.5-27.5-9.1,0-14.8,3.4-21.5,7V273.6l16.8,6.7V282h-98.9v-1.7l18.4-6.7V50.7L1467.4,45V43.3l81.8-24.8h.3V147.2c23.1-20.4,45.3-40.6,66-40.6,22.8,0,41.6,17.8,41.6,53.6V273.6Z"/><path class="cls-1" d="M1684.9,201.2c0-50.3,43.6-94.5,104.9-94.5,55.3,0,94.5,33.9,94.5,82.1,0,54-45.3,98.2-102.2,98.2C1722.8,287,1684.9,251.8,1684.9,201.2ZM1793.5,283c11.1,0,22.5-18.8,22.5-70.7,0-63-22.8-101.6-38.9-101.6-12.4,0-23.8,18.4-23.8,70.7C1753.3,244.1,1776.1,283,1793.5,283Z"/><path class="cls-1" d="M2085.2,273.6l16.8,6.7V282h-97.2v-1.7l16.8-6.7V171.4c0-19.1-9.1-27.5-22.5-27.5-9.1,0-14.8,3.4-21.5,7V273.6l16.8,6.7V282h-98.9v-1.7l18.4-6.7V142.2l-18.4-5.7v-1.7l81.8-28.2h.3v40.6c23.1-20.1,45.3-40.6,66-40.6,22.8,0,41.6,17.8,41.6,53.6V273.6Z"/><path class="cls-1" d="M2089.5,111.7h100.2v1.7l-16.4,5.7,47.3,94.5,6-12.4c27.2-55.6,24.8-79.1-8.4-86.8l-4.4-1v-1.7h69.1v1.7l-12.4,5.7-81.5,168c-22.5,46.3-42.6,63.7-61.3,63.7-14.4,0-24.1-10.1-24.1-26.1,0-11.1,4.7-20.4,9.4-28.5l3.7,1c17.8,4.7,30.2,7,40.6,7,14.8,0,22.1-4.7,29.5-20.4L2102,119.2l-12.4-5.7-.1-1.8Z"/><path class="cls-1" d="M864.2,682.6l22.5-6.7V454l-22.5-6.7v-1.7h91.2c92.9,0,124,31.5,124,62.4,0,42.6-55.3,64.4-108.3,65v-2c19.8-1.3,41.2-17.4,41.2-59.3,0-41.6-25.1-63-56.7-63h-.7V676l29.5,6.7v1.7H864.1v-1.8Z"/><path class="cls-1" d="M1166.6,509c44.9,0,69.4,22.5,72.1,47.3H1136.8a49.6,49.6,0,0,0-.3,7.7c0,58.7,24.1,82.8,63.7,82.8,27.8,0,37.5-12.4,43.9-30.5l2,.7c-9.4,32.5-32.5,72.4-86.2,72.4-50.3,0-87.2-33.9-87.2-85.8C1072.8,544.8,1116.7,509,1166.6,509Zm12.1,41.5c-1.7-20.8-10.1-37.5-21.5-37.5-10.4,0-18.8,13.7-20.5,40.2Z"/><path class="cls-1" d="M1250.4,682.6l18.4-6.7V453l-18.4-5.7v-1.7l81.8-24.8h.3V675.9l18.4,6.7v1.7H1250.3l.1-1.7Z"/><path class="cls-1" d="M1446.2,656.5c-11.7,18.1-24.1,32.9-47.6,32.9-24.5,0-38.2-16.1-38.2-31.8,0-9.4,5-14.4,19.8-21.1l65.7-29.5V564.1c0-28.2-9.4-36.5-22.1-36.5-11.7,0-22.5,6-22.5,25.5,0,8.4,1.7,15.8,4.7,27.2l1.7,6.4a33,33,0,0,1-19.4,6c-13.7,0-22.8-7.4-22.8-19.4s9.1-22.5,35.2-39.9c25.1-16.8,40.2-24.1,57.7-24.1,28.8,0,50,20.1,50,52.6v93.5c0,7,5,12.4,13.7,12.4,5.7,0,9.4-1.3,14.8-3v2.3c-19.8,11.1-36.5,21.8-55.3,21.8C1459.9,688.7,1447.5,675.3,1446.2,656.5Zm-11.7,1c6,0,9.4-2.3,11.4-5.4V610.9l-11.1,5.4c-12.1,6-17.4,12.4-17.4,22.5,0,10.6,7,18.7,17.1,18.7Z"/><path class="cls-1" d="M1691.9,514v.3l-85.1,166.3h12.1c44.9,0,60.3-15.8,78.1-63h1.7l-10.1,66.7H1536.1V684l84.8-166.3h-12.7c-33.5,0-48.9,13.7-66.4,49.3h-1.7l10.7-53Z"/><path class="cls-2" d="M543.4,0H144.8C65.2,0,0,65.2,0,144.8V543.4C0,623,65.2,688.2,144.8,688.2H543.4c79.6,0,144.8-65.2,144.8-144.8V144.8C688.2,65.2,623,0,543.4,0ZM228.3,434.1,190,466.5,30.6,343.9,191.9,220.7l40,30.1-121,93Zm98.6,42.7-54.7-11.3,88.9-254.1,54.6,11.3ZM498.2,467l-38.3-32.4,117.4-90.3-121-93,40.1-30.1L657.6,344.4Z"/></g></g></svg>