<svg xmlns="http://www.w3.org/2000/svg" viewBox="0 0 2329.8 688.2"><defs><style>.cls-1{fill:#0b18bf;}.cls-2{fill:#fff;}</style></defs><g id="Calque_2" data-name="Calque 2"><g id="Calque_1-2" data-name="Calque 1"><path class="cls-1" d="M543.4,688.2H144.8C65.2,688.2,0,623,0,543.4V144.8C0,65.2,65.2,0,144.8,0H543.4C623,0,688.2,65.2,688.2,144.8V543.4C688.2,623,623,688.2,543.4,688.2Z"/><polygon class="cls-2" points="231.9 250.8 191.9 220.7 30.6 343.9 190 466.5 228.3 434.1 110.9 343.8 231.9 250.8"/><polygon class="cls-2" points="456.3 251.3 496.4 221.2 657.6 344.4 498.2 467 459.9 434.6 577.3 344.3 456.3 251.3"/><polygon class="cls-2" points="361.1 211.4 415.7 222.7 326.9 476.8 272.2 465.5 361.1 211.4"/><path class="cls-2" d="M994.3,271.8v1.7H901.1v-1.7l15.8-6.7L1030.2,25.7h1.7l120,239.4,15.8,6.7v1.7H1051v-1.7l26.5-6.7L1036.9,183H961.1c-23.8,58.3-9.1,80.8,24.5,87.2Zm40.5-92.8-37.2-74.8-30.2,64c-1.7,3.7-3.4,7.4-4.7,10.7h72.1v.1Z"/><path class="cls-2" d="M1356.7,265.1l16.8,6.7v1.7h-97.2v-1.7l16.8-6.7V162.9c0-19.1-9.1-27.5-22.5-27.5-9.1,0-14.8,3.4-21.5,7V265.1l16.8,6.7v1.7H1167v-1.7l18.4-6.7V133.7L1167,128v-1.7l81.8-28.2h.3v40.6c23.1-20.1,45.3-40.6,66-40.6,22.8,0,41.6,17.8,41.6,53.6V265.1Z"/><path class="cls-2" d="M1378.8,124.7c36.9-10.4,71.1-42.6,79.5-70.4h2v48.9h42.2v23.5h-42.2V230.3c0,12.7,8.4,19.8,23.5,19.8,8,0,14.8-2,23.1-7.4l1.3,2c-35.5,26.8-47.9,33.9-66.4,33.9-27.8,0-45.3-16.4-45.3-44.9V126.8h-17.7Z"/><path class="cls-2" d="M1704,265.1l16.8,6.7v1.7h-97.2v-1.7l16.8-6.7V162.9c0-19.1-9.1-27.5-22.5-27.5-9.1,0-14.8,3.4-21.5,7V265.1l16.8,6.7v1.7h-98.9v-1.7l18.4-6.7V42.2l-18.4-5.7V34.8L1596.1,10h.3V138.7c23.1-20.4,45.3-40.6,66-40.6,22.8,0,41.6,17.8,41.6,53.6V265.1Z"/><path class="cls-2" d="M1731.8,192.7c0-50.3,43.6-94.5,104.9-94.5,55.3,0,94.5,33.9,94.5,82.1,0,54-45.3,98.2-102.2,98.2C1769.7,278.5,1731.8,243.3,1731.8,192.7Zm108.6,81.8c11.1,0,22.5-18.8,22.5-70.7,0-63-22.8-101.6-38.9-101.6-12.4,0-23.8,18.4-23.8,70.7C1800.2,235.6,1823,274.5,1840.4,274.5Z"/><path class="cls-2" d="M2132.1,265.1l16.8,6.7v1.7h-97.2v-1.7l16.8-6.7V162.9c0-19.1-9.1-27.5-22.5-27.5-9.1,0-14.8,3.4-21.5,7V265.1l16.8,6.7v1.7h-98.9v-1.7l18.4-6.7V133.7l-18.4-5.7v-1.7l81.8-28.2h.3v40.6c23.1-20.1,45.3-40.6,66-40.6,22.8,0,41.6,17.8,41.6,53.6V265.1Z"/><path class="cls-2" d="M2136.4,103.2h100.2v1.7l-16.4,5.7,47.3,94.5,6-12.4c27.2-55.6,24.8-79.1-8.4-86.8l-4.4-1v-1.7h69.1v1.7l-12.4,5.7-81.5,168c-22.5,46.3-42.6,63.7-61.3,63.7-14.4,0-24.1-10.1-24.1-26.1,0-11.1,4.7-20.4,9.4-28.5l3.7,1c17.8,4.7,30.2,7,40.6,7,14.8,0,22.1-4.7,29.5-20.4l-84.8-164.6-12.4-5.7v-1.8Z"/><path class="cls-2" d="M911.1,674.1l22.5-6.7V445.5l-22.5-6.7v-1.7h91.2c92.9,0,124,31.5,124,62.4,0,42.6-55.3,64.4-108.3,65v-2c19.8-1.3,41.2-17.4,41.2-59.3,0-41.6-25.1-63-56.7-63h-.7V667.5l29.5,6.7v1.7H911v-1.8Z"/><path class="cls-2" d="M1213.5,500.5c44.9,0,69.4,22.5,72.1,47.3H1183.7a62.74,62.74,0,0,0-.3,7.7c0,58.7,24.1,82.8,63.7,82.8,27.8,0,37.5-12.4,43.9-30.5l2,.7c-9.4,32.5-32.5,72.4-86.2,72.4-50.3,0-87.2-33.9-87.2-85.8C1119.7,536.3,1163.6,500.5,1213.5,500.5Zm12.1,41.5c-1.7-20.8-10.1-37.5-21.5-37.5-10.4,0-18.8,13.7-20.5,40.2Z"/><path class="cls-2" d="M1297.3,674.1l18.4-6.7V444.5l-18.4-5.7v-1.7l81.8-24.8h.3V667.4l18.4,6.7v1.7H1297.2l.1-1.7Z"/><path class="cls-2" d="M1493.1,648c-11.7,18.1-24.1,32.9-47.6,32.9-24.5,0-38.2-16.1-38.2-31.8,0-9.4,5-14.4,19.8-21.1l65.7-29.5V555.6c0-28.2-9.4-36.5-22.1-36.5-11.7,0-22.5,6-22.5,25.5,0,8.4,1.7,15.8,4.7,27.2l1.7,6.4a32.76,32.76,0,0,1-19.4,6c-13.7,0-22.8-7.4-22.8-19.4s9.1-22.5,35.2-39.9c25.1-16.8,40.2-24.1,57.7-24.1,28.8,0,50,20.1,50,52.6v93.5c0,7,5,12.4,13.7,12.4,5.7,0,9.4-1.3,14.8-3v2.3c-19.8,11.1-36.5,21.8-55.3,21.8C1506.8,680.2,1494.4,666.8,1493.1,648Zm-11.7,1c6,0,9.4-2.3,11.4-5.4V602.4l-11.1,5.4c-12.1,6-17.4,12.4-17.4,22.5C1464.3,640.9,1471.3,649,1481.4,649Z"/><path class="cls-2" d="M1738.8,505.5v.3l-85.1,166.3h12.1c44.9,0,60.3-15.8,78.1-63h1.7l-10.1,66.7H1583v-.3l84.8-166.3h-12.7c-33.5,0-48.9,13.7-66.4,49.3H1587l10.7-53Z"/></g></g></svg>