<?xml version="1.0" encoding="utf-8"?>
<!-- Generator: Adobe Illustrator 27.0.1, SVG Export Plug-In . SVG Version: 6.00 Build 0)  -->
<svg version="1.1" id="Calque_1" xmlns="http://www.w3.org/2000/svg" xmlns:xlink="http://www.w3.org/1999/xlink" x="0px" y="0px"
	 viewBox="0 0 3000 3000" style="enable-background:new 0 0 3000 3000;" xml:space="preserve">
<style type="text/css">
	.st0{fill:#0B18BF;}
	.st1{fill:#FFFFFF;}
	.st2{fill:none;}
</style>
<path class="st0" d="M1059.6,1844.1H661c-79.6,0-144.8-65.2-144.8-144.8v-398.6c0-79.6,65.2-144.8,144.8-144.8h398.6
	c79.6,0,144.8,65.2,144.8,144.8v398.6C1204.4,1778.9,1139.2,1844.1,1059.6,1844.1z"/>
<g>
	<polygon class="st1" points="748.1,1406.7 708.1,1376.6 546.8,1499.8 706.2,1622.4 744.5,1590 627.1,1499.7 	"/>
	<polygon class="st1" points="972.5,1407.2 1012.6,1377.1 1173.8,1500.3 1014.4,1622.9 976.1,1590.5 1093.5,1500.2 	"/>
	<polygon class="st1" points="877.3,1367.3 931.9,1378.6 843.1,1632.7 788.4,1621.4 	"/>
</g>
<g>
	<rect x="2433.5" y="890.2" class="st2" width="9.5" height="0"/>
</g>
<g>
	<path d="M1410.5,1427.7v1.7h-93.2v-1.7l15.8-6.7l113.3-239.4h1.7l120,239.4l15.8,6.7v1.7h-116.7v-1.7l26.5-6.7l-40.6-82.1h-75.8
		c-23.8,58.3-9.1,80.8,24.5,87.2L1410.5,1427.7z M1451,1334.9l-37.2-74.8l-30.2,64c-1.7,3.7-3.4,7.4-4.7,10.7H1451z"/>
	<path d="M1772.9,1421l16.8,6.7v1.7h-97.2v-1.7l16.8-6.7v-102.2c0-19.1-9.1-27.5-22.5-27.5c-9.1,0-14.8,3.4-21.5,7V1421l16.8,6.7
		v1.7h-98.9v-1.7l18.4-6.7v-131.4l-18.4-5.7v-1.7l81.8-28.2h0.3v40.6c23.1-20.1,45.3-40.6,66-40.6c22.8,0,41.6,17.8,41.6,53.6V1421z
		"/>
	<path d="M1795,1280.6c36.9-10.4,71.1-42.6,79.5-70.4h2v48.9h42.2v23.5h-42.2v103.6c0,12.7,8.4,19.8,23.5,19.8c8,0,14.8-2,23.1-7.4
		l1.3,2c-35.5,26.8-47.9,33.9-66.4,33.9c-27.8,0-45.3-16.4-45.3-44.9v-106.9H1795V1280.6z"/>
	<path d="M2120.2,1421l16.8,6.7v1.7h-97.2v-1.7l16.8-6.7v-102.2c0-19.1-9.1-27.5-22.5-27.5c-9.1,0-14.8,3.4-21.5,7V1421l16.8,6.7
		v1.7h-98.9v-1.7l18.4-6.7v-222.9l-18.4-5.7v-1.7l81.8-24.8h0.3v128.7c23.1-20.4,45.3-40.6,66-40.6c22.8,0,41.6,17.8,41.6,53.6V1421
		z"/>
	<path d="M2148,1348.6c0-50.3,43.6-94.5,104.9-94.5c55.3,0,94.5,33.9,94.5,82.1c0,54-45.3,98.2-102.2,98.2
		C2185.9,1434.4,2148,1399.2,2148,1348.6z M2256.6,1430.4c11.1,0,22.5-18.8,22.5-70.7c0-63-22.8-101.6-38.9-101.6
		c-12.4,0-23.8,18.4-23.8,70.7C2216.4,1391.5,2239.2,1430.4,2256.6,1430.4z"/>
	<path d="M2548.3,1421l16.8,6.7v1.7h-97.2v-1.7l16.8-6.7v-102.2c0-19.1-9.1-27.5-22.5-27.5c-9.1,0-14.8,3.4-21.5,7V1421l16.8,6.7
		v1.7h-98.9v-1.7l18.4-6.7v-131.4l-18.4-5.7v-1.7l81.8-28.2h0.3v40.6c23.1-20.1,45.3-40.6,66-40.6c22.8,0,41.6,17.8,41.6,53.6V1421z
		"/>
	<path d="M2552.6,1259.1h100.2v1.7l-16.4,5.7l47.3,94.5l6-12.4c27.2-55.6,24.8-79.1-8.4-86.8l-4.4-1v-1.7h69.1v1.7l-12.4,5.7
		l-81.5,168c-22.5,46.3-42.6,63.7-61.3,63.7c-14.4,0-24.1-10.1-24.1-26.1c0-11.1,4.7-20.4,9.4-28.5l3.7,1c17.8,4.7,30.2,7,40.6,7
		c14.8,0,22.1-4.7,29.5-20.4l-84.8-164.6l-12.4-5.7V1259.1z"/>
	<path d="M1327.3,1830l22.5-6.7v-221.9l-22.5-6.7v-1.7h91.2c92.9,0,124,31.5,124,62.4c0,42.6-55.3,64.4-108.3,65v-2
		c19.8-1.3,41.2-17.4,41.2-59.3c0-41.6-25.1-63-56.7-63h-0.7v227.3l29.5,6.7v1.7h-120.3V1830z"/>
	<path d="M1629.7,1656.4c44.9,0,69.4,22.5,72.1,47.3h-101.9c-0.3,2.3-0.3,5-0.3,7.7c0,58.7,24.1,82.8,63.7,82.8
		c27.8,0,37.5-12.4,43.9-30.5l2,0.7c-9.4,32.5-32.5,72.4-86.2,72.4c-50.3,0-87.2-33.9-87.2-85.8
		C1535.9,1692.2,1579.8,1656.4,1629.7,1656.4z M1641.8,1697.9c-1.7-20.8-10.1-37.5-21.5-37.5c-10.4,0-18.8,13.7-20.5,40.2
		L1641.8,1697.9z"/>
	<path d="M1713.5,1830l18.4-6.7v-222.9l-18.4-5.7v-1.7l81.8-24.8h0.3v255.1l18.4,6.7v1.7h-100.6V1830z"/>
	<path d="M1909.3,1803.9c-11.7,18.1-24.1,32.9-47.6,32.9c-24.5,0-38.2-16.1-38.2-31.8c0-9.4,5-14.4,19.8-21.1l65.7-29.5v-42.9
		c0-28.2-9.4-36.5-22.1-36.5c-11.7,0-22.5,6-22.5,25.5c0,8.4,1.7,15.8,4.7,27.2l1.7,6.4c-2.7,2-9.4,6-19.4,6
		c-13.7,0-22.8-7.4-22.8-19.4s9.1-22.5,35.2-39.9c25.1-16.8,40.2-24.1,57.7-24.1c28.8,0,50,20.1,50,52.6v93.5c0,7,5,12.4,13.7,12.4
		c5.7,0,9.4-1.3,14.8-3v2.3c-19.8,11.1-36.5,21.8-55.3,21.8C1923,1836.1,1910.6,1822.7,1909.3,1803.9z M1897.6,1804.9
		c6,0,9.4-2.3,11.4-5.4v-41.2l-11.1,5.4c-12.1,6-17.4,12.4-17.4,22.5C1880.5,1796.8,1887.5,1804.9,1897.6,1804.9z"/>
	<path d="M2155,1661.4v0.3l-85.1,166.3h12.1c44.9,0,60.3-15.8,78.1-63h1.7l-10.1,66.7h-152.5v-0.3l84.8-166.3h-12.7
		c-33.5,0-48.9,13.7-66.4,49.3h-1.7l10.7-53H2155z"/>
</g>
<g>
</g>
<g>
</g>
<g>
</g>
<g>
</g>
<g>
</g>
<g>
</g>
<g>
</g>
<g>
</g>
<g>
</g>
<g>
</g>
<g>
</g>
<g>
</g>
<g>
</g>
<g>
</g>
<g>
</g>
</svg>
